<svg id="Capa_1" data-name="Capa 1" xmlns="http://www.w3.org/2000/svg" viewBox="0 0 75.14 75.09"><defs><style>.cls-1{fill:#3880ff;}.cls-2{fill:#d7dd47;}.cls-3{fill:#fff;}.cls-4{fill:#062f77;}</style></defs><title>icon</title><rect class="cls-1" width="75.14" height="75.09" rx="13.51"/><polygon class="cls-2" points="37.56 20.33 37.57 20.33 37.57 11.32 37.56 11.33 37.56 20.33 37.56 20.33"/><polygon class="cls-3" points="37.57 54.76 37.57 54.76 37.57 54.76 27.21 48.78 22.66 46.15 22.66 46.15 22.65 46.15 14.87 50.65 14.87 50.65 37.57 63.77 60.28 50.65 52.48 46.15 37.57 54.76"/><polygon class="cls-4" points="52.48 28.93 52.48 46.15 60.28 50.65 60.28 24.43 37.57 11.32 37.57 20.33 52.48 28.93"/><polygon class="cls-3" points="14.87 50.65 22.65 46.15 22.66 46.15 22.66 28.93 37.56 20.33 37.56 20.33 37.56 11.33 37.56 11.32 14.86 24.43 14.86 50.65 14.87 50.65"/><polygon class="cls-3" points="30.81 44.87 27.84 43.16 27.84 31.92 37.57 37.54 37.57 48.78 37.57 48.78 37.57 37.54 47.3 31.92 37.57 26.31 37.57 26.31 27.84 31.92 27.84 43.16 27.84 43.16 30.81 44.87"/><polygon class="cls-4" points="37.57 37.54 37.57 48.78 47.3 43.16 47.3 31.92 37.57 37.54"/><polygon class="cls-4" points="27.84 31.92 27.84 43.16 30.81 44.87 37.57 48.78 37.57 48.78 37.57 37.54 27.84 31.92"/></svg>